{"title":"Vikings.S03E05.The.Usurper.720p.WEB-DL.DD5.1.H.264-BS[rarbg]","uid":11790530,"size":1465086721,"categoryP":"video","categoryS":"hd___tv_shows","magnet":"?xt=urn:btih:305fff66d0cb0d691d925b2152ab2373940fdc3b&amp;dn=Vikings.S03E05.The.Usurper.720p.WEB-DL.DD5.1.H.264-BS%5Brarbg%5D&amp;tr=udp%3A%2F%2Ftracker.openbittorrent.com%3A80&amp;tr=udp%3A%2F%2Fopen.demonii.com%3A1337&amp;tr=udp%3A%2F%2Ftracker.coppersurfer.tk%3A6969&amp;tr=udp%3A%2F%2Fexodus.desync.com%3A6969","seeders":13,"leechers":0,"uploader":"kanaille","files":3,"time":1427915771,"description":"General\nUnique ID                                : 185831439957069743940583931929956501551 (0x8BCDD55F16C42238A68DD4684CA0C82F)\nComplete name                            : Vikings.S03E05.The.Usurper.720p.WEB-DL.DD5.1.H.264-BS.mkv\nFormat                                   : Matroska\nFormat version                           : Version 4 / Version 2\nFile size                                : 1.36 GiB\nDuration                                 : 44mn 12s\nOverall bit rate                         : 4 419 Kbps\nEncoded date                             : UTC 2015-03-20 07:27:35\nWriting application                      : mkvmerge v7.6.0 ('Garden of Dreams') 64bit built on Feb  8 2015 13:04:34\nWriting library                          : libebml v1.3.1 + libmatroska v1.4.2\nDURATION                                 : 00:44:12.000000000\nNUMBER_OF_FRAMES                         : 82875\nNUMBER_OF_BYTES                          : 127296000\n_STATISTICS_WRITING_APP                  : mkvmerge v7.6.0 ('Garden of Dreams') 64bit built on Feb  8 2015 13:04:34\n_STATISTICS_WRITING_DATE_UTC             : 2015-03-20 07:27:35\n_STATISTICS_TAGS                         : BPS DURATION NUMBER_OF_FRAMES NUMBER_OF_BYTES\n\nVideo\nID                                       : 2\nFormat                                   : AVC\nFormat/Info                              : Advanced Video Codec\nFormat profile                           : &lt;a class=&quot;__cf_email__&quot; href=&quot;/cdn-cgi/l/email-protection&quot; data-cfemail=&quot;0941606e6149453a2738&quot;&gt;[email&amp;#160;protected]&lt;/a&gt;&lt;script cf-hash='f9e31' type=&quot;text/javascript&quot;&gt;\n/* &lt;![CDATA[ */!function(){try{var t=&quot;currentScript&quot;in document?document.currentScript:function(){for(var t=document.getElementsByTagName(&quot;script&quot;),e=t.length;e--;)if(t[e].getAttribute(&quot;cf-hash&quot;))return t[e]}();if(t&amp;&amp;t.previousSibling){var e,r,n,i,c=t.previousSibling,a=c.getAttribute(&quot;data-cfemail&quot;);if(a){for(e=&quot;&quot;,r=parseInt(a.substr(0,2),16),n=2;a.length-n;n+=2)i=parseInt(a.substr(n,2),16)^r,e+=String.fromCharCode(i);e=document.createTextNode(e),c.parentNode.replaceChild(e,c)}}}catch(u){}}();/* ]]&gt; */&lt;/script&gt;\nFormat settings, CABAC                   : No\nFormat settings, ReFrames                : 2 frames\nCodec ID                                 : V_MPEG4/ISO/AVC\nDuration                                 : 44mn 11s\nBit rate                                 : 3 948 Kbps\nWidth                                    : 1 280 pixels\nHeight                                   : 718 pixels\nDisplay aspect ratio                     : 16:9\nFrame rate mode                          : Constant\nFrame rate                               : 23.976 fps\nColor space                              : YUV\nChroma subsampling                       : 4:2:0\nBit depth                                : 8 bits\nScan type                                : Progressive\nBits/(Pixel*Frame)                       : 0.179\nStream size                              : 1.22 GiB (89%)\nLanguage                                 : English\nDefault                                  : Yes\nForced                                   : No\nColor primaries                          : BT.709\nTransfer characteristics                 : BT.709\nMatrix coefficients                      : BT.709\n\nAudio\nID                                       : 3\nFormat                                   : AC-3\nFormat/Info                              : Audio Coding 3\nMode extension                           : CM (complete main)\nFormat settings, Endianness              : Big\nCodec ID                                 : A_AC3\nDuration                                 : 44mn 12s\nBit rate mode                            : Constant\nBit rate                                 : 384 Kbps\nChannel(s)                               : 6 channels\nChannel positions                        : Front: L C R, Side: L R, LFE\nSampling rate                            : 48.0 KHz\nBit depth                                : 16 bits\nCompression mode                         : Lossy\nStream size                              : 121 MiB (9%)\nLanguage                                 : English\nDefault                                  : Yes\nForced                                   : No\n\nText\nID                                       : 1\nFormat                                   : UTF-8\nCodec ID                                 : S_TEXT/UTF8\nCodec ID/Info                            : UTF-8 Plain Text\nTitle                                    : CC\nLanguage                                 : English\nDefault                                  : No\nForced                                   : No","torrent":{"xt":"urn:btih:305fff66d0cb0d691d925b2152ab2373940fdc3b","amp;dn":"Vikings.S03E05.The.Usurper.720p.WEB-DL.DD5.1.H.264-BS%5Brarbg%5D","amp;tr":["udp%3A%2F%2Ftracker.openbittorrent.com%3A80","udp%3A%2F%2Fopen.demonii.com%3A1337","udp%3A%2F%2Ftracker.coppersurfer.tk%3A6969","udp%3A%2F%2Fexodus.desync.com%3A6969"],"infoHash":"305fff66d0cb0d691d925b2152ab2373940fdc3b","infoHashBuffer":{"type":"Buffer","data":[48,95,255,102,208,203,13,105,29,146,91,33,82,171,35,115,148,15,220,59]},"announce":[],"urlList":[]}}